 <svg  version="1.0" xmlns="http://www.w3.org/2000/svg"  width="900.000000pt" height="885.000000pt" viewBox="0 0 900.000000 885.000000"  preserveAspectRatio="xMidYMid meet">  <g transform="translate(0.000000,885.000000) scale(0.100000,-0.100000)" fill="#0b9d87" stroke="none"> <path d="M4340 8795 c-8 -2 -89 -8 -180 -15 -298 -20 -586 -69 -865 -145 -80 -22 -336 -104 -380 -122 -374 -148 -680 -306 -960 -497 -49 -33 -96 -67 -103 -74 -8 -6 -34 -26 -60 -44 -26 -18 -56 -40 -67 -49 -11 -9 -63 -52 -115 -95 -169 -141 -352 -321 -517 -509 -101 -115 -320 -410 -378 -507 -5 -10 -39 -66 -75 -125 -76 -125 -200 -368 -254 -498 -53 -128 -52 -125 -71 -175 -9 -25 -21 -56 -26 -68 -61 -156 -146 -474 -183 -682 -100 -563 -100 -1057 0 -1600 24 -128 66 -316 84 -370 5 -14 18 -59 30 -100 26 -90 87 -265 121 -345 4 -11 20 -49 35 -85 31 -77 158 -337 210 -430 123 -222 298 -473 482 -695 97 -117 412 -431 527 -527 153 -127 460 -350 526 -382 8 -3 28 -15 44 -26 17 -11 37 -23 45 -27 8 -4 47 -25 85 -47 89 -52 320 -165 440 -216 72 -30 85 -36 135 -55 25 -9 56 -22 70 -27 14 -6 45 -17 70 -25 186 -59 239 -76 270 -83 19 -4 80 -19 135 -33 162 -41 333 -73 510 -95 174 -22 951 -22 1120 0 205 27 453 74 590 114 236 68 376 115 540 180 41 17 54 22 160 70 62 27 268 128 295 144 8 5 74 44 145 86 482 286 891 645 1233 1084 45 58 87 110 92 117 42 52 214 320 280 438 35 61 155 302 185 370 14 33 32 74 39 90 8 17 21 50 31 75 9 25 23 60 31 78 8 18 14 37 14 43 0 6 6 25 14 42 33 76 115 369 150 532 76 359 107 760 87 1127 -16 298 -49 524 -118 818 -31 132 -91 330 -133 440 -12 30 -25 66 -30 80 -12 35 -34 90 -50 125 -7 17 -22 50 -33 75 -20 46 -160 329 -181 365 -6 12 -39 68 -74 125 -35 58 -68 114 -75 125 -7 11 -14 22 -17 25 -3 3 -23 32 -45 65 -39 59 -183 255 -195 265 -3 3 -36 43 -74 90 -92 113 -406 426 -531 530 -292 243 -567 423 -905 591 -114 57 -176 84 -355 158 -59 25 -85 34 -183 66 -401 130 -708 193 -1097 225 -138 12 -470 22 -495 15z m555 -54 c91 -11 144 -18 316 -41 31 -4 79 -12 105 -18 27 -6 85 -18 129 -27 177 -38 509 -136 620 -184 11 -5 45 -19 75 -31 209 -82 521 -237 664 -331 32 -22 60 -39 62 -39 6 0 224 -150 289 -199 146 -110 302 -247 455 -401 203 -202 221 -222 351 -386 303 -383 511 -754 677 -1204 61 -166 77 -216 135 -430 26 -95 59 -261 86 -435 56 -352 56 -898 0 -1250 -46 -291 -86 -460 -169 -715 -46 -139 -108 -304 -144 -385 -35 -77 -160 -328 -189 -380 -124 -223 -302 -479 -486 -700 -97 -116 -390 -409 -506 -506 -139 -116 -386 -299 -477 -354 -9 -5 -54 -33 -100 -61 -45 -28 -90 -54 -98 -58 -8 -3 -42 -22 -75 -41 -74 -43 -267 -137 -370 -180 -16 -7 -46 -20 -65 -28 -19 -8 -53 -22 -75 -30 -22 -8 -59 -22 -82 -31 -24 -9 -60 -22 -80 -30 -35 -13 -171 -55 -298 -91 -27 -8 -79 -21 -115 -29 -36 -9 -95 -22 -131 -31 -36 -8 -74 -15 -85 -15 -10 0 -48 -6 -84 -14 -134 -30 -540 -66 -740 -66 -361 0 -839 63 -1165 155 -115 32 -262 77 -290 89 -17 8 -45 17 -62 20 -18 4 -35 12 -38 17 -4 5 -13 9 -22 9 -8 0 -29 6 -46 14 -18 7 -57 24 -87 36 -176 71 -418 193 -595 300 -81 48 -286 184 -318 209 -6 6 -82 66 -167 133 -351 278 -720 687 -942 1041 -24 38 -51 80 -60 95 -10 15 -21 34 -25 42 -3 8 -17 32 -30 52 -91 147 -242 469 -318 678 -25 72 -37 108 -71 220 -18 63 -38 129 -44 146 -5 16 -14 50 -19 75 -6 24 -19 87 -31 139 -11 52 -25 120 -30 150 -4 30 -13 84 -18 120 -30 189 -37 301 -37 625 0 338 8 475 41 670 21 121 44 241 56 290 5 22 14 60 19 84 5 25 13 59 18 75 5 17 16 56 25 86 21 71 81 258 94 290 6 14 20 50 32 80 63 162 151 351 230 495 55 99 60 109 80 140 11 17 23 37 26 45 14 29 158 246 217 325 243 324 601 681 922 921 106 79 269 187 380 253 50 29 97 56 105 61 21 13 339 170 375 185 17 7 41 18 55 23 14 6 46 20 72 31 26 12 53 21 60 21 8 0 18 4 23 9 6 5 26 14 45 19 19 6 67 22 105 35 98 35 268 87 283 87 7 0 34 6 60 14 26 8 83 22 127 31 44 9 108 23 142 31 34 8 77 14 95 14 18 0 49 5 68 10 32 9 107 18 355 40 121 11 586 5 710 -9z"/> <path d="M4425 8163 c-23 -74 -36 -104 -98 -233 -101 -209 -201 -355 -337 -490 -71 -71 -197 -170 -216 -170 -2 0 -21 -10 -42 -23 -20 -13 -62 -33 -92 -46 -30 -12 -64 -26 -75 -31 -11 -5 -83 -30 -160 -55 -77 -26 -156 -54 -175 -62 -330 -141 -587 -321 -735 -513 -83 -108 -166 -253 -190 -330 -4 -14 -11 -29 -15 -35 -10 -14 -37 -93 -49 -140 -6 -22 -17 -67 -26 -100 -20 -76 -46 -239 -52 -327 -5 -66 -4 -68 22 -78 14 -5 37 -10 50 -10 12 0 45 -7 71 -15 27 -8 88 -26 135 -40 47 -14 92 -25 100 -25 8 0 23 17 34 38 22 42 146 208 200 267 109 120 300 306 435 424 52 46 106 93 120 105 42 37 279 227 370 296 47 36 87 67 90 70 3 3 39 32 80 64 41 33 127 112 191 175 165 165 261 298 339 469 23 49 39 72 51 72 20 0 49 -26 49 -44 0 -28 94 -193 162 -284 87 -118 280 -313 403 -407 50 -38 92 -72 95 -75 3 -3 52 -42 110 -86 58 -44 116 -89 130 -101 14 -12 86 -72 160 -134 226 -188 496 -448 626 -603 48 -57 117 -155 169 -240 9 -15 14 -15 60 1 28 9 58 20 68 25 9 4 38 11 62 15 25 3 48 9 51 14 2 4 32 11 66 15 70 8 104 32 94 67 -4 12 -13 76 -21 142 -28 226 -75 384 -171 582 -121 249 -293 428 -569 593 -90 54 -237 130 -252 130 -4 0 -19 6 -33 13 -14 8 -34 16 -45 20 -11 3 -65 22 -120 42 -55 20 -113 40 -130 45 -37 11 -109 37 -133 48 -113 56 -178 93 -234 134 -75 55 -219 202 -269 275 -92 134 -112 167 -165 268 -32 61 -79 162 -105 225 -25 62 -50 115 -55 117 -6 2 -18 -23 -29 -54z"/> <path d="M4400 7017 c-183 -281 -402 -506 -709 -727 -193 -139 -306 -223 -355 -264 -71 -59 -322 -309 -393 -391 -73 -85 -193 -243 -193 -254 0 -4 37 -26 83 -49 45 -23 116 -60 157 -82 41 -22 81 -40 89 -40 8 0 44 28 80 63 37 34 97 89 135 122 38 33 74 65 80 70 6 6 41 35 76 65 36 30 70 59 76 65 6 5 35 30 64 55 318 266 530 461 665 611 36 40 144 194 171 244 12 24 45 23 59 0 156 -259 314 -418 905 -915 29 -25 58 -50 64 -55 6 -6 40 -35 76 -65 92 -79 135 -117 209 -188 36 -34 76 -65 88 -68 14 -4 41 6 80 28 32 19 102 56 156 82 53 27 97 52 97 58 0 9 -101 146 -146 198 -12 14 -41 48 -64 75 -127 151 -365 371 -523 485 -45 33 -86 63 -92 67 -5 5 -23 17 -40 27 -57 37 -231 169 -305 234 -200 174 -393 397 -490 567 -41 72 -41 72 -100 -18z"/> <path d="M4425 6193 c-62 -117 -236 -321 -386 -452 -78 -69 -92 -80 -174 -146 -230 -183 -596 -496 -593 -506 3 -7 112 -91 168 -129 12 -8 28 -20 34 -25 6 -6 36 -27 68 -49 l56 -38 109 83 c59 46 110 86 113 90 3 3 59 46 125 95 66 49 159 127 206 174 86 84 226 261 264 333 25 46 59 51 78 10 16 -37 92 -149 142 -209 75 -92 261 -269 314 -298 17 -10 133 -96 141 -106 3 -3 46 -37 95 -75 50 -38 96 -75 103 -82 17 -17 37 -16 54 0 7 7 38 31 68 52 30 21 60 43 66 49 6 6 22 18 34 26 56 38 125 92 128 99 3 8 -33 40 -244 218 -27 23 -59 50 -70 60 -12 10 -52 43 -90 73 -37 30 -84 69 -103 86 -20 17 -83 68 -141 115 -191 154 -341 308 -441 455 -50 73 -58 87 -69 112 -14 32 -33 27 -55 -15z"/> <path d="M1000 5205 c-153 -14 -266 -28 -365 -46 -111 -19 -250 -52 -259 -59 -9 -9 21 -63 105 -190 27 -41 52 -82 56 -90 4 -8 25 -42 47 -75 46 -69 49 -73 108 -168 24 -38 50 -79 58 -91 8 -13 34 -55 58 -94 57 -93 59 -94 107 -71 155 76 434 179 605 224 36 9 81 21 100 26 48 12 217 45 320 61 115 18 588 18 690 0 320 -56 555 -142 775 -283 17 -10 39 -23 50 -29 11 -6 32 -18 47 -28 14 -9 48 -30 75 -46 68 -41 318 -207 383 -255 30 -22 71 -51 90 -64 55 -38 205 -158 208 -168 2 -5 10 -9 18 -9 24 0 -144 194 -327 378 -178 180 -343 325 -514 453 -117 87 -290 204 -335 225 -8 4 -47 26 -85 48 -39 23 -86 49 -105 58 -76 37 -173 78 -196 84 -13 3 -27 10 -30 15 -3 5 -12 9 -21 9 -8 0 -29 6 -46 13 -59 25 -220 69 -317 87 -210 38 -276 48 -555 80 -148 18 -582 20 -745 5z"/> <path d="M7210 5205 c-80 -7 -183 -18 -230 -24 -189 -26 -297 -43 -325 -51 -16 -5 -48 -12 -70 -15 -72 -12 -237 -58 -292 -82 -17 -7 -35 -13 -40 -13 -24 0 -263 -110 -358 -165 -33 -19 -69 -40 -80 -45 -78 -41 -386 -255 -452 -315 -6 -5 -54 -46 -106 -90 -106 -89 -452 -433 -537 -535 -30 -36 -65 -76 -77 -90 -25 -27 -31 -46 -10 -34 6 4 39 31 72 59 33 28 76 62 95 75 19 14 44 32 54 42 35 32 343 242 454 309 40 24 85 52 100 61 15 10 36 22 47 28 11 5 27 14 35 20 105 68 250 141 345 174 28 10 58 22 67 27 28 15 184 53 328 81 78 15 162 21 325 25 241 6 423 -9 600 -48 28 -6 82 -18 120 -26 95 -21 187 -47 330 -95 114 -38 329 -123 350 -138 6 -5 27 -15 48 -24 l38 -15 47 72 c26 40 51 80 57 89 19 32 95 153 144 228 27 41 74 116 105 165 31 50 77 123 103 163 25 41 42 77 37 81 -5 5 -40 15 -79 24 -381 87 -839 117 -1245 82z"/> <path d="M1336 3548 c-9 -17 -16 -35 -16 -40 0 -5 -9 -30 -21 -56 -26 -61 -31 -72 -67 -162 -28 -71 -94 -232 -111 -275 -5 -11 -17 -40 -27 -65 -79 -198 -92 -220 -161 -250 -24 -10 -43 -21 -43 -24 0 -3 65 -6 145 -6 81 0 145 4 145 9 0 5 -19 16 -42 23 -40 13 -43 18 -46 53 -3 35 3 58 43 150 7 17 17 42 24 58 l11 28 141 -3 142 -3 25 -60 c13 -33 31 -74 38 -92 8 -17 14 -49 14 -72 0 -38 -2 -41 -45 -60 -25 -11 -45 -22 -45 -25 0 -3 90 -6 200 -6 198 0 242 8 162 30 -56 14 -86 53 -127 160 -10 25 -23 59 -30 75 -7 17 -21 50 -30 75 -10 25 -23 59 -30 75 -8 17 -28 66 -45 110 -18 44 -36 89 -41 100 -4 11 -18 45 -30 75 -12 30 -28 69 -35 87 -8 17 -14 38 -14 46 0 7 -5 28 -11 46 -15 43 -52 43 -73 -1z m9 -280 c6 -23 25 -73 50 -133 25 -59 28 -77 14 -86 -18 -11 -180 -11 -197 0 -14 9 -9 47 13 91 16 32 42 97 51 130 4 14 11 28 17 32 16 10 45 -9 52 -34z"/> <path d="M4427 3548 c-8 -18 -24 -58 -36 -88 -22 -55 -32 -79 -56 -135 -7 -16 -23 -55 -34 -85 -12 -30 -26 -64 -30 -75 -5 -11 -17 -40 -27 -65 -9 -25 -26 -65 -36 -90 -11 -25 -23 -54 -27 -65 -83 -200 -98 -223 -163 -246 -21 -7 -38 -17 -38 -21 0 -4 65 -8 145 -8 81 0 145 4 145 9 0 5 -19 16 -42 23 -41 14 -43 17 -46 56 -2 23 3 56 11 74 8 18 26 60 39 93 l25 60 142 3 141 3 11 -28 c22 -53 28 -68 48 -117 12 -27 21 -66 21 -87 0 -36 -3 -39 -45 -58 -25 -11 -45 -22 -45 -25 0 -3 90 -6 200 -6 124 0 200 4 200 10 0 5 -12 13 -27 16 -73 18 -89 38 -153 199 -18 44 -36 89 -41 100 -4 11 -18 45 -30 75 -11 30 -27 69 -34 85 -7 17 -21 50 -30 75 -10 25 -23 59 -30 75 -7 17 -21 50 -30 75 -10 25 -24 59 -31 77 -8 17 -14 37 -14 44 0 7 -5 28 -12 46 -16 45 -52 46 -71 1z m-16 -250 c8 -7 25 -40 38 -73 13 -33 29 -73 36 -90 38 -90 34 -95 -85 -95 -98 0 -115 7 -105 41 11 40 49 133 57 144 4 5 8 17 8 28 0 22 17 57 28 57 5 0 15 -6 23 -12z"/> <path d="M7771 3493 c-41 -109 -58 -150 -77 -186 -8 -16 -14 -33 -14 -38 0 -6 -9 -31 -21 -57 -26 -61 -33 -78 -54 -132 -9 -25 -23 -58 -30 -75 -7 -16 -23 -55 -35 -85 -42 -103 -78 -175 -97 -191 -10 -9 -35 -22 -55 -30 -21 -7 -38 -17 -38 -21 0 -4 66 -8 147 -8 118 0 145 3 135 13 -7 6 -27 17 -45 23 -45 15 -56 50 -33 106 10 24 23 57 30 73 7 17 21 47 31 68 l18 37 137 0 137 0 23 -52 c35 -81 38 -90 54 -136 19 -57 12 -76 -35 -97 -21 -10 -39 -22 -39 -27 0 -4 86 -8 191 -8 144 0 190 3 187 12 -3 7 -20 16 -39 21 -49 12 -69 40 -123 177 -10 25 -24 59 -31 75 -7 17 -21 50 -30 75 -10 25 -23 59 -30 75 -8 17 -28 66 -45 110 -18 44 -39 94 -46 112 -8 17 -14 38 -14 46 0 9 -4 18 -9 21 -10 6 -48 120 -53 156 -2 20 -9 26 -33 28 -29 2 -31 0 -64 -85z m24 -205 c6 -21 20 -58 50 -133 39 -96 39 -96 24 -106 -8 -5 -57 -8 -109 -7 -108 3 -114 9 -85 75 40 93 45 104 45 115 0 19 41 78 55 78 8 0 16 -10 20 -22z"/> <path d="M3418 3564 c-3 -3 -79 -5 -167 -6 -117 0 -161 -3 -158 -12 2 -6 17 -12 33 -14 16 -2 39 -13 52 -25 l22 -20 0 -367 0 -367 -25 -27 c-13 -14 -38 -29 -55 -33 -17 -3 -29 -10 -28 -15 2 -5 7 -9 11 -9 4 1 91 1 193 1 121 0 183 3 179 10 -3 6 -18 10 -33 10 -15 0 -38 9 -52 20 -25 19 -25 19 -25 192 l0 173 32 3 c42 4 74 -18 102 -70 12 -24 31 -59 43 -78 19 -32 45 -80 116 -212 l26 -48 134 0 c73 0 131 4 128 8 -3 5 -24 15 -46 22 -23 8 -50 25 -61 39 -10 14 -22 31 -27 36 -9 11 -74 121 -85 145 -4 8 -13 24 -20 35 -44 73 -77 134 -77 143 0 6 17 21 38 33 43 27 79 62 107 104 15 24 20 48 20 115 0 74 -3 89 -24 116 -36 48 -112 81 -216 93 -102 12 -129 13 -137 5z m140 -70 c44 -25 72 -89 72 -160 -1 -118 -64 -197 -168 -209 -101 -12 -102 -11 -102 164 0 175 5 209 34 222 31 13 130 4 164 -17z"/> <path d="M1915 3550 c-6 -10 19 -20 49 -20 12 0 33 -11 45 -24 22 -23 22 -25 22 -384 0 -425 7 -400 -106 -437 -49 -16 24 -20 322 -17 l320 3 12 67 c25 131 15 171 -24 95 -51 -99 -93 -123 -217 -123 -77 0 -90 3 -115 24 l-28 24 -3 324 c-2 177 0 342 3 365 8 52 23 69 76 83 22 6 37 15 34 20 -7 11 -383 11 -390 0z"/> <path d="M5005 3550 c-3 -5 7 -12 22 -16 49 -10 52 -13 73 -46 19 -31 20 -51 20 -359 0 -383 -4 -407 -71 -429 -22 -8 -42 -17 -45 -22 -3 -4 76 -8 175 -8 100 0 184 0 188 -1 4 0 9 4 11 10 2 6 -6 11 -18 11 -26 0 -61 18 -77 39 -13 17 -19 334 -7 365 5 14 34 16 220 16 l214 0 11 -27 c6 -17 9 -91 7 -186 l-3 -159 -28 -24 c-16 -14 -41 -24 -58 -24 -18 0 -29 -5 -27 -11 2 -7 63 -10 188 -9 101 0 186 2 187 4 2 2 -18 14 -44 27 -46 23 -48 26 -56 79 -4 30 -7 202 -5 381 3 361 1 351 69 369 77 21 28 30 -157 30 -144 0 -185 -3 -182 -12 3 -7 15 -14 29 -16 39 -5 69 -35 79 -77 13 -55 12 -252 0 -276 -10 -18 -23 -19 -215 -19 -112 0 -210 3 -219 6 -14 5 -16 28 -16 154 0 134 2 150 21 174 11 14 34 29 51 34 18 4 33 13 35 19 5 14 -363 17 -372 3z"/> <path d="M6092 3548 c3 -7 18 -15 34 -19 79 -16 111 -82 100 -208 -4 -42 -11 -182 -15 -312 -10 -271 -15 -287 -81 -309 -22 -7 -43 -17 -46 -22 -3 -4 61 -8 142 -8 146 0 167 6 96 25 -27 8 -41 19 -54 45 -15 31 -16 52 -8 180 5 80 12 190 15 244 3 55 8 103 11 108 10 16 33 8 39 -14 7 -23 61 -140 140 -303 24 -49 66 -136 92 -192 46 -98 49 -103 79 -103 27 0 33 5 48 43 10 23 24 56 31 72 7 17 20 50 30 75 9 25 23 59 30 75 8 17 21 48 30 70 39 95 65 156 88 205 8 19 26 63 39 97 24 64 44 80 52 41 3 -13 7 -84 10 -158 4 -74 9 -196 12 -271 9 -172 6 -185 -51 -210 -25 -11 -45 -22 -45 -24 0 -3 88 -5 196 -5 127 0 193 3 189 10 -3 6 -17 10 -31 10 -41 0 -81 27 -93 62 -8 21 -14 160 -18 383 -6 349 -6 350 16 369 11 11 38 22 58 25 20 3 38 12 41 19 3 9 -28 12 -132 12 -126 0 -137 -1 -156 -22 -11 -12 -20 -28 -20 -36 0 -8 -6 -26 -13 -40 -17 -33 -39 -82 -63 -142 -16 -41 -41 -103 -64 -155 -75 -178 -110 -266 -110 -275 0 -6 -8 -10 -17 -8 -18 3 -50 64 -168 313 -37 77 -79 167 -95 200 -16 33 -38 81 -50 107 -11 25 -28 49 -36 52 -9 3 -70 6 -136 6 -90 0 -119 -3 -116 -12z"/> <path d="M2677 2973 c-4 -3 -7 -20 -7 -36 l0 -30 108 7 c198 13 227 18 230 44 l3 22 -164 0 c-90 0 -167 -3 -170 -7z"/> <path d="M855 2360 c-24 -26 -14 -60 30 -99 26 -22 35 -38 35 -61 0 -30 -2 -31 -30 -25 -19 4 -30 3 -30 -4 0 -18 56 -12 73 7 29 32 21 69 -23 112 -44 44 -47 52 -24 71 12 10 20 10 35 1 16 -10 19 -9 19 3 0 23 -63 20 -85 -5z"/> <path d="M997 2373 c-14 -13 -7 -24 9 -15 9 5 26 7 36 4 18 -4 20 -13 16 -103 -3 -93 -2 -99 17 -99 19 0 20 6 17 100 -3 85 -1 101 12 106 9 3 23 1 31 -6 12 -10 15 -9 15 4 0 13 -12 16 -73 16 -41 0 -77 -3 -80 -7z"/> <path d="M1220 2361 c13 -25 13 -141 0 -175 -8 -23 -7 -26 13 -26 23 0 23 2 19 89 -3 55 0 96 7 110 11 19 9 21 -19 21 -27 0 -30 -2 -20 -19z"/> <path d="M1358 2363 c-72 -83 -35 -202 63 -203 37 0 59 14 59 39 0 11 -5 9 -20 -7 -12 -12 -29 -22 -40 -22 -37 0 -60 39 -60 102 0 49 4 63 25 83 21 22 22 25 6 25 -10 0 -25 -8 -33 -17z"/> <path d="M1444 2365 c35 -18 36 -18 36 0 0 10 -10 15 -32 15 l-33 0 29 -15z"/> <path d="M1530 2371 c0 -6 5 -13 10 -16 6 -3 10 -42 10 -85 0 -43 -4 -82 -10 -85 -20 -12 -9 -25 20 -25 28 0 30 2 20 20 -18 34 -8 83 20 97 24 12 24 13 3 13 -27 0 -40 38 -23 69 10 19 8 21 -20 21 -16 0 -30 -4 -30 -9z"/> <path d="M1650 2371 c0 -6 5 -13 10 -16 19 -12 11 -57 -10 -62 -21 -6 -21 -6 1 -21 19 -13 21 -21 16 -63 -5 -42 -4 -49 11 -49 15 0 17 13 17 110 0 107 -1 110 -22 110 -13 0 -23 -4 -23 -9z"/> <path d="M1770 2364 c0 -14 3 -14 15 -4 12 10 18 10 30 0 18 -15 21 -150 5 -181 -10 -17 -7 -19 20 -19 31 0 38 8 20 26 -6 6 -10 44 -8 90 l3 79 33 3 c62 6 31 22 -43 22 -63 0 -75 -3 -75 -16z"/> <path d="M1984 2270 c0 -98 2 -110 18 -110 16 0 18 11 18 110 0 101 -2 110 -19 110 -17 0 -18 -9 -17 -110z"/> <path d="M2095 2363 c4 -10 10 -28 12 -40 3 -13 13 -23 22 -23 9 -1 33 -28 55 -60 21 -33 42 -60 47 -60 20 0 8 58 -19 86 -15 16 -40 48 -56 72 -18 25 -36 42 -48 42 -15 0 -18 -4 -13 -17z"/> <path d="M2220 2370 c0 -5 9 -10 20 -10 11 0 20 5 20 10 0 6 -9 10 -20 10 -11 0 -20 -4 -20 -10z"/> <path d="M2348 2363 c-19 -24 -38 -70 -38 -94 0 -25 28 -80 49 -96 9 -7 37 -13 62 -13 40 0 48 3 53 23 13 48 2 77 -29 77 -2 0 -1 -18 2 -39 5 -37 4 -40 -22 -47 -44 -11 -75 31 -75 102 0 47 4 59 26 79 25 23 25 25 7 25 -11 0 -26 -8 -35 -17z"/> <path d="M2425 2373 c11 -3 26 -12 33 -21 11 -14 12 -13 12 6 0 18 -5 22 -32 21 -21 -1 -26 -3 -13 -6z"/> <path d="M2637 2273 c2 -96 4 -108 20 -111 16 -2 18 7 18 108 0 103 -1 110 -20 110 -19 0 -20 -6 -18 -107z"/> <path d="M2756 2364 c-14 -37 -5 -67 34 -105 44 -43 48 -60 24 -80 -12 -10 -20 -10 -35 -1 -16 10 -19 9 -19 -3 0 -24 58 -19 81 8 29 35 23 60 -27 110 -54 53 -56 83 -4 72 19 -4 30 -3 30 4 0 18 -77 13 -84 -5z"/> <path d="M2910 2372 c0 -4 5 -13 11 -19 12 -12 8 -147 -5 -175 -7 -16 -2 -18 43 -18 31 0 51 4 51 11 0 6 -7 8 -16 5 -32 -12 -44 13 -44 91 0 41 5 83 10 94 10 17 7 19 -20 19 -16 0 -30 -4 -30 -8z"/> <path d="M3314 2358 c9 -12 16 -37 16 -54 0 -20 9 -40 24 -55 13 -14 28 -40 34 -59 l9 -35 19 38 18 38 -26 22 c-14 12 -29 33 -33 47 -16 63 -27 80 -52 80 -23 0 -23 -1 -9 -22z"/> <path d="M3460 2349 c-11 -26 -11 -38 4 -80 11 -30 15 -59 11 -79 -6 -27 -4 -30 20 -30 22 0 24 3 15 19 -14 28 -13 174 2 189 9 9 6 12 -14 12 -19 0 -29 -8 -38 -31z"/> <path d="M3595 2270 c0 -107 1 -110 23 -110 23 0 30 14 12 25 -5 3 -10 42 -10 85 0 43 5 82 10 85 18 11 11 25 -12 25 -22 0 -23 -3 -23 -110z"/> <path d="M3690 2359 c0 -19 1 -19 16 -4 31 30 39 12 42 -93 2 -94 4 -102 22 -102 19 0 20 7 20 99 0 106 8 125 41 95 18 -16 19 -16 19 4 0 21 -5 22 -80 22 -74 0 -80 -1 -80 -21z"/> <path d="M3900 2371 c0 -6 4 -12 9 -16 9 -5 8 -46 -3 -157 -4 -33 -1 -38 17 -38 21 0 22 4 22 110 0 107 -1 110 -22 110 -13 0 -23 -4 -23 -9z"/> <path d="M4020 2359 c-17 -30 -3 -74 32 -100 17 -13 34 -34 39 -46 13 -34 29 -28 29 11 0 28 -7 40 -40 66 -28 22 -40 39 -40 57 0 24 3 25 35 20 19 -3 35 -2 35 4 0 5 -18 9 -40 9 -29 0 -42 -5 -50 -21z"/> <path d="M4214 2362 c-36 -28 -50 -83 -34 -131 17 -52 49 -73 103 -69 36 3 42 6 45 28 l3 25 -16 -22 c-41 -58 -105 -6 -105 84 0 46 4 58 26 78 31 29 11 34 -22 7z"/> <path d="M4280 2373 c8 -3 23 -12 33 -21 15 -14 17 -13 17 6 0 18 -6 22 -32 21 -18 0 -26 -3 -18 -6z"/> <path d="M4388 2368 c16 -16 16 -180 0 -196 -9 -9 -5 -12 20 -12 36 0 37 2 20 29 -8 13 -9 29 -2 52 8 30 14 34 46 37 33 3 38 0 44 -23 3 -14 4 -42 1 -61 -5 -31 -4 -34 19 -34 21 0 23 3 14 19 -5 11 -10 52 -10 91 0 39 5 80 10 91 10 17 7 19 -20 19 -31 0 -38 -8 -19 -27 6 -6 9 -21 7 -34 -2 -19 -10 -25 -39 -27 -47 -4 -67 18 -50 54 15 34 15 34 -21 34 -25 0 -29 -3 -20 -12z"/> <path d="M4730 2359 c-22 -19 -25 -29 -25 -89 0 -60 3 -70 25 -89 31 -25 110 -30 110 -6 0 12 -4 13 -18 4 -31 -19 -66 -4 -80 34 -25 68 -5 145 40 159 22 6 22 6 -2 7 -14 0 -36 -9 -50 -20z"/> <path d="M4820 2365 c7 -8 16 -12 21 -9 13 8 1 24 -18 24 -13 0 -13 -3 -3 -15z"/> <path d="M4926 2363 c9 -22 10 -139 1 -175 -7 -28 -7 -28 41 -28 27 0 57 6 68 15 10 8 14 15 9 15 -6 0 -16 -5 -22 -11 -6 -6 -21 -9 -34 -7 -23 3 -24 6 -25 93 -1 95 5 108 43 98 14 -3 23 -1 23 6 0 7 -22 11 -56 11 -50 0 -55 -2 -48 -17z"/> <path d="M5100 2371 c0 -6 5 -13 10 -16 6 -3 10 -13 10 -21 0 -9 15 -30 33 -48 17 -18 45 -51 60 -74 16 -23 33 -40 38 -37 5 4 9 28 9 56 0 47 -1 49 -21 37 -17 -11 -23 -11 -26 0 -3 7 -10 18 -17 25 -6 6 -22 29 -35 50 -21 34 -61 52 -61 28z"/> <path d="M5230 2372 c0 -4 4 -12 9 -17 5 -6 11 -23 14 -40 3 -21 4 -16 6 18 1 36 -3 47 -14 47 -8 0 -15 -4 -15 -8z"/> <path d="M5330 2371 c0 -5 12 -11 28 -13 27 -3 27 -4 30 -82 2 -46 -2 -84 -8 -90 -16 -16 -12 -26 13 -26 23 0 23 2 19 93 -3 104 5 129 38 109 17 -10 20 -10 20 3 0 12 -14 15 -70 15 -38 0 -70 -4 -70 -9z"/> <path d="M5545 2270 c0 -107 1 -110 23 -110 23 0 30 14 12 25 -11 7 -14 48 -4 58 12 12 53 -25 59 -54 5 -20 13 -29 27 -29 11 0 18 3 16 8 -36 69 -40 87 -27 124 9 29 9 44 1 63 -10 22 -18 25 -59 25 l-48 0 0 -110z m85 55 c0 -31 -3 -35 -25 -35 -18 0 -26 7 -31 24 -8 32 2 46 32 46 21 0 24 -5 24 -35z"/> <path d="M5747 2313 c5 -103 12 -132 33 -143 25 -13 67 -13 76 2 5 8 0 9 -15 5 -40 -10 -61 27 -61 108 0 42 5 76 12 83 9 9 5 12 -18 12 l-30 0 3 -67z"/> <path d="M5868 2368 c7 -7 13 -45 13 -92 2 -91 6 -77 11 32 3 66 2 72 -16 72 -16 0 -17 -3 -8 -12z"/> <path d="M5970 2371 c0 -5 5 -13 10 -16 6 -3 10 -19 10 -35 0 -16 13 -48 29 -72 16 -24 30 -52 33 -63 5 -31 19 -24 34 20 18 51 17 60 -1 45 -20 -17 -26 -10 -50 63 -16 49 -26 63 -43 65 -12 2 -22 -1 -22 -7z"/> <path d="M6130 2365 c-8 -10 -10 -27 -5 -52 4 -21 8 -64 9 -96 1 -53 3 -57 25 -57 18 0 22 3 15 18 -13 28 -17 163 -5 175 6 6 11 15 11 19 0 14 -37 9 -50 -7z"/> <path d="M6349 2354 c-20 -21 -24 -36 -24 -86 1 -53 4 -63 28 -84 33 -28 107 -33 126 -10 17 20 10 81 -9 81 -10 0 -15 -10 -15 -34 0 -72 -70 -66 -95 8 -18 56 3 132 40 142 l25 7 -26 1 c-15 1 -35 -9 -50 -25z"/> <path d="M6440 2370 c20 -13 40 -13 40 0 0 6 -12 10 -27 10 -22 0 -25 -2 -13 -10z"/> <path d="M6567 2273 c2 -101 3 -108 22 -111 24 -4 25 -2 10 32 -7 14 -9 32 -5 41 5 14 8 14 30 0 14 -9 29 -30 35 -46 5 -16 17 -29 25 -29 20 0 20 2 -4 48 -19 35 -19 44 -8 86 17 64 5 80 -58 84 l-49 3 2 -108z m86 66 c8 -31 -2 -49 -28 -49 -27 0 -39 24 -25 51 14 25 46 24 53 -2z"/> <path d="M6792 2360 c-27 -26 -36 -60 -29 -112 11 -83 91 -117 150 -63 24 23 27 33 27 88 -1 82 -20 107 -82 107 -31 0 -51 -6 -66 -20z m107 -24 c31 -65 8 -158 -41 -164 -67 -8 -94 149 -34 191 23 16 61 2 75 -27z"/> <path d="M7009 2366 c9 -11 12 -43 9 -111 -2 -63 1 -95 8 -95 6 0 9 21 6 58 -3 42 0 61 10 70 12 9 22 0 57 -53 24 -36 45 -65 47 -65 2 0 4 20 4 45 0 36 -4 47 -19 53 -11 4 -35 30 -54 57 -21 32 -42 51 -57 53 -21 3 -22 2 -11 -12z"/> <path d="M7140 2370 c0 -5 6 -10 14 -10 8 0 18 5 21 10 3 6 -3 10 -14 10 -12 0 -21 -4 -21 -10z"/> <path d="M7230 2371 c0 -6 5 -13 10 -16 6 -3 10 -42 10 -85 0 -43 -4 -82 -10 -85 -18 -11 -11 -25 13 -25 21 0 22 2 19 89 -3 54 1 97 7 110 11 19 9 21 -19 21 -16 0 -30 -4 -30 -9z"/> <path d="M7350 2371 c0 -6 5 -13 10 -16 6 -3 10 -13 10 -21 0 -9 15 -30 33 -48 17 -18 45 -51 60 -74 31 -46 47 -47 47 -2 0 41 -9 58 -28 54 -12 -3 -29 15 -56 56 -24 38 -45 60 -57 60 -11 0 -19 -4 -19 -9z"/> <path d="M7480 2371 c0 -11 26 -22 34 -14 12 12 5 23 -14 23 -11 0 -20 -4 -20 -9z"/> <path d="M7609 2354 c-20 -21 -24 -36 -24 -86 0 -53 3 -62 28 -84 37 -32 111 -34 127 -4 15 28 9 75 -10 75 -10 0 -16 -12 -18 -35 -4 -44 -14 -54 -46 -46 -29 7 -56 59 -56 106 0 35 24 83 47 92 16 6 16 7 -3 7 -11 1 -31 -11 -45 -25z"/> <path d="M7700 2370 c20 -13 40 -13 40 0 0 6 -12 10 -27 10 -22 0 -25 -2 -13 -10z"/> <path d="M7820 2361 c5 -11 10 -52 10 -91 0 -39 -5 -80 -10 -91 -10 -18 -7 -19 50 -19 49 0 60 3 60 16 0 13 -3 14 -15 4 -20 -16 -54 -3 -61 24 -3 12 0 34 5 50 8 18 8 33 1 46 -15 29 -12 48 10 60 14 8 26 8 40 0 16 -9 20 -8 20 5 0 12 -13 15 -60 15 -57 0 -60 -1 -50 -19z"/> <path d="M8000 2371 c0 -6 5 -13 10 -16 6 -3 10 -15 10 -26 0 -11 8 -23 18 -26 19 -7 35 -27 73 -90 27 -47 39 -47 39 -1 0 19 -10 40 -27 57 -16 15 -41 46 -57 69 -26 38 -66 57 -66 33z"/> <path d="M8130 2370 c0 -5 9 -10 20 -10 11 0 20 5 20 10 0 6 -9 10 -20 10 -11 0 -20 -4 -20 -10z"/> <path d="M3146 2338 c-5 -23 -2 -34 9 -41 21 -11 8 -29 -16 -22 -16 5 -19 1 -19 -21 0 -22 3 -25 12 -16 7 7 18 12 25 12 16 0 41 -50 36 -72 -4 -14 2 -18 26 -18 30 0 31 1 18 23 -8 12 -22 49 -32 82 -33 111 -48 129 -59 73z"/> <path d="M4020 2183 c0 -20 5 -23 35 -23 19 0 35 5 35 10 0 6 -10 8 -24 4 -17 -4 -27 0 -35 13 -10 17 -10 16 -11 -4z"/> <path d="M2100 2175 c0 -8 7 -15 16 -15 14 0 14 3 4 15 -7 8 -14 15 -16 15 -2 0 -4 -7 -4 -15z"/> <path d="M3090 2175 c0 -8 7 -15 16 -15 14 0 14 3 4 15 -7 8 -14 15 -16 15 -2 0 -4 -7 -4 -15z"/> <path d="M8010 2175 c0 -8 7 -15 15 -15 8 0 15 4 15 9 0 5 -7 11 -15 15 -9 3 -15 0 -15 -9z"/> <path d="M3305 2170 c-3 -5 3 -10 14 -10 12 0 21 5 21 10 0 6 -6 10 -14 10 -8 0 -18 -4 -21 -10z"/> <path d="M5100 2170 c0 -5 9 -10 20 -10 11 0 20 5 20 10 0 6 -9 10 -20 10 -11 0 -20 -4 -20 -10z"/> <path d="M5970 2170 c0 -5 7 -10 15 -10 8 0 15 5 15 10 0 6 -7 10 -15 10 -8 0 -15 -4 -15 -10z"/> <path d="M7350 2170 c0 -5 9 -10 20 -10 11 0 20 5 20 10 0 6 -9 10 -20 10 -11 0 -20 -4 -20 -10z"/> </g> </svg> 